<svg xmlns="http://www.w3.org/2000/svg" viewBox="0 0 24 24" fill="currentColor" aria-hidden="true">
  <path d="M12 .5C5.73.5.75 5.48.75 11.78c0 4.9 3.16 9.06 7.55 10.53.55.1.75-.24.75-.53v-1.86c-3.07.67-3.72-1.48-3.72-1.48-.5-1.28-1.23-1.62-1.23-1.62-1.01-.68.08-.67.08-.67 1.12.08 1.71 1.15 1.71 1.15.99 1.7 2.6 1.21 3.24.93.1-.72.39-1.21.71-1.49-2.45-.28-5.02-1.23-5.02-5.48 0-1.21.43-2.2 1.13-2.98-.12-.28-.49-1.41.11-2.94 0 0 .92-.3 3.02 1.14a10.4 10.4 0 0 1 5.5 0c2.1-1.45 3.02-1.14 3.02-1.14.6 1.53.23 2.66.11 2.94.7.78 1.13 1.77 1.13 2.98 0 4.26-2.58 5.19-5.04 5.47.4.34.76 1.01.76 2.03v3.01c0 .29.2.64.76.53C19.09 20.84 22.25 16.68 22.25 11.78 22.25 5.48 18.27.5 12 .5z"/>
</svg>